<svg xmlns="http://www.w3.org/2000/svg" viewBox="0 0 64 64" width="64" height="64">
  <defs>
    <radialGradient id="ob" cx="38%" cy="28%" r="88%">
      <stop offset="0" stop-color="#1d2a57"/><stop offset="0.55" stop-color="#121a38"/><stop offset="1" stop-color="#070b1c"/>
    </radialGradient>
  </defs>
  <rect x="2" y="2" width="60" height="60" rx="15" fill="url(#ob)"/>
  <circle cx="32" cy="37" r="20" fill="#3a6bd0" opacity="0.22"/>
  <g fill="#cdd9ff" opacity="0.5"><circle cx="12" cy="47" r="0.8"/><circle cx="53" cy="23" r="0.8"/><circle cx="49" cy="56" r="0.7"/><circle cx="16" cy="25" r="0.7"/><circle cx="56" cy="41" r="0.6"/></g>
  <g stroke="#7e97da" stroke-width="1.3" stroke-linecap="round" stroke-linejoin="round" opacity="0.55" fill="none">
    <path d="M20 18 L43 15"/><path d="M20 18 L25 33"/><path d="M43 15 L39 39"/>
    <path d="M25 33 L32 36 L39 39"/><path d="M25 33 L22 50"/><path d="M39 39 L45 48"/>
  </g>
  <g>
    <circle cx="20" cy="18" r="2.6" fill="#ffd9a8"/>
    <circle cx="43" cy="15" r="2.1" fill="#dce8ff"/>
    <circle cx="25" cy="33" r="2.4" fill="#ffffff"/>
    <circle cx="32" cy="36" r="2.9" fill="#ffffff"/>
    <circle cx="39" cy="39" r="2.4" fill="#ffffff"/>
    <circle cx="22" cy="50" r="2.6" fill="#bcd2ff"/>
    <circle cx="45" cy="48" r="2.0" fill="#dce8ff"/>
  </g>
</svg>
